# xmcd CD database file
#
# Track frame offsets:
#	183
#	19310
#	35460
#	47910
#	66028
#	89585
#	111865
#	139415
#	160250
#	180923
#	196670
#	215725
#	232060
#	253770
#	275400
#
# Disc length: 3899 seconds
#
# Revision: 6
# Processed by: cddbd v1.5.2PL0 Copyright (c) Steve Scherf et al.
# Submitted via: CDex 1.51
#
DISCID=dd0f390f
DTITLE=Renaud - The meilleur of Renaud ... 1985-1995
DYEAR=1995
DGENRE=Rock
TTITLE0=Miss Maggie
TTITLE1=La pêche à la ligne
TTITLE2=Mistral gagnant
TTITLE3=Morts les enfants
TTITLE4=Fatigué
TTITLE5=La mère à Titi
TTITLE6=Triviale poursuite
TTITLE7=Me jette pas
TTITLE8=Putain de camion
TTITLE9=Marchand de caillou
TTITLE10=P'tit voleur
TTITLE11=La ballade Nord-Irlandaise
TTITLE12=Welcome Gorby
TTITLE13=Tout en haut de ch'terril
TTITLE14=C'est quand qu'on va où ?
EXTD=YEAR: 1995
EXTT0=Renaud
EXTT1=Renaud
EXTT2=Renaud
EXTT3=Renaud
EXTT4=Renaud
EXTT5=Renaud
EXTT6=Renaud
EXTT7=Renaud
EXTT8=Renaud
EXTT9=Renaud
EXTT10=Renaud
EXTT11=Renaud
EXTT12=Renaud
EXTT13=Renaud
EXTT14=Renaud
PLAYORDER=
